<svg id="Layer_1" data-name="Layer 1" xmlns="http://www.w3.org/2000/svg" viewBox="0 0 393.92 60.74">
  <defs>
    <style>
      .cls-1 {
        fill: #565759;
      }

      .cls-2 {
        fill: #c32032;
      }
    </style>
  </defs>
  <title>AVI logo vector</title>
  <g>
    <path class="cls-1" d="M28.31,32.37A49,49,0,0,0,28.76,40H20l-.58-3.16h-.19a11.35,11.35,0,0,1-9,3.87C3.8,40.74,0,36.1,0,31.08c0-8.17,7.33-12.1,18.47-12V18.6c0-1.67-.9-4.06-5.73-4.06a17.67,17.67,0,0,0-8.69,2.39l-1.8-6.31A26,26,0,0,1,14.48,7.85C25,7.85,28.31,14,28.31,21.43V32.37m-9.52-7.21c-5.15-.06-9.14,1.16-9.14,5a3.51,3.51,0,0,0,3.86,3.73,5.35,5.35,0,0,0,5.09-3.61,7.43,7.43,0,0,0,.19-1.67Z"/>
    <path class="cls-1" d="M55.41,8.56l4.25,14.61a75.26,75.26,0,0,1,1.8,7.66h.19c.52-2.58,1-5,1.74-7.66l4-14.61h10.3L66,40H56.25L44.79,8.56H55.41"/>
    <path class="cls-1" d="M146.86,18.6c0-3.93-.12-7.27-.25-10h8.49l.45,4.31h.2a11.49,11.49,0,0,1,9.71-5c6.44,0,11.26,4.25,11.26,13.52V40h-9.78V22.59c0-4.06-1.41-6.82-5-6.82A5.21,5.21,0,0,0,157,19.43a7,7,0,0,0-.38,2.45V40h-9.79V18.6"/>
    <path class="cls-1" d="M208,0V8.56h7v7.21h-7V27.16c0,3.79.9,5.53,3.86,5.53a12.06,12.06,0,0,0,2.9-.26l.06,7.4a18.7,18.7,0,0,1-6.37.91A10.26,10.26,0,0,1,201.11,38c-1.8-1.87-2.7-4.89-2.7-9.33V15.77h-4.18V8.56h4.18V2.64L208,0"/>
    <path class="cls-1" d="M240.76,27.41c.32,4.06,4.31,6,8.88,6a27.62,27.62,0,0,0,8.69-1.29l1.28,6.63a30.91,30.91,0,0,1-11.38,2c-10.69,0-16.8-6.25-16.8-16.09,0-8,4.95-16.8,15.9-16.8,10.16,0,14,7.92,14,15.7a23,23,0,0,1-.32,3.86H240.76m11.52-6.69c0-2.38-1-6.37-5.54-6.37-4.11,0-5.78,3.73-6.05,6.37Z"/>
    <path class="cls-1" d="M309.88,35.46c0,6-1.23,11-4.77,14.15-3.47,3-8.17,3.87-12.8,3.87-4.12,0-8.5-.84-11.33-2.45l1.93-7.4A19.35,19.35,0,0,0,292.05,46c4.63,0,8.17-2.51,8.17-8.3V35.65h-.12a10.07,10.07,0,0,1-8.5,4.12c-7.79,0-13.32-6.31-13.32-15.38,0-10.1,6.56-16.54,14.29-16.54,4.31,0,7,1.87,8.62,4.44h.13l.32-3.73h8.5c-.13,2-.26,4.63-.26,9.33V35.46M300.1,21.37a7.71,7.71,0,0,0-.2-1.81,5.36,5.36,0,0,0-5.28-4.31c-3.54,0-6.43,3.22-6.43,9,0,4.7,2.31,8.36,6.43,8.36a5.31,5.31,0,0,0,5.15-4A8.16,8.16,0,0,0,300.1,26Z"/>
    <path class="cls-1" d="M330.6,18.92c0-4.63-.12-7.66-.25-10.36h8.43l.32,5.79h.26a9.22,9.22,0,0,1,8.49-6.5,10,10,0,0,1,2.06.13v9.27a9.55,9.55,0,0,0-2.64-.32c-3.6,0-6,1.93-6.69,4.95a11.45,11.45,0,0,0-.19,2.19V40H330.6V18.92"/>
    <path class="cls-1" d="M393.48,32.37a50.46,50.46,0,0,0,.44,7.66h-8.81l-.58-3.16h-.19a11.35,11.35,0,0,1-9,3.87c-6.37,0-10.17-4.64-10.17-9.66,0-8.17,7.34-12.1,18.47-12V18.6c0-1.67-.9-4.06-5.73-4.06a17.66,17.66,0,0,0-8.68,2.39l-1.8-6.31a26,26,0,0,1,12.23-2.77c10.48,0,13.83,6.18,13.83,13.58V32.37M384,25.16c-5.14-.06-9.13,1.16-9.13,5,0,2.51,1.67,3.73,3.86,3.73a5.34,5.34,0,0,0,5.08-3.61,6.89,6.89,0,0,0,.19-1.67Z"/>
    <path class="cls-2" d="M123.21,22.81a20.17,20.17,0,1,1-31.15-.14l-3.58-3.58a25.2,25.2,0,1,0,38.3.14l-3.57,3.58"/>
    <rect class="cls-2" x="102.94" y="8.53" width="9.74" height="31.53"/>
  </g>
</svg>
