<?xml version="1.0" encoding="UTF-8" standalone="no"?><!DOCTYPE svg PUBLIC "-//W3C//DTD SVG 1.1//EN" "http://www.w3.org/Graphics/SVG/1.1/DTD/svg11.dtd"><svg width="100%" height="100%" viewBox="0 0 226 69" version="1.1" xmlns="http://www.w3.org/2000/svg" xmlns:xlink="http://www.w3.org/1999/xlink" xml:space="preserve" xmlns:serif="http://www.serif.com/" style="fill-rule:evenodd;clip-rule:evenodd;stroke-linejoin:round;stroke-miterlimit:2;"><clipPath id="_clip1"><rect x="0" y="0" width="225.132" height="68.87"/></clipPath><g clip-path="url(#_clip1)"><g><g><path d="M90.37,68.162l-14.185,-19.317l13.137,-16.27l-9.396,0l-11.486,15.229l-0,-31.937l-7.658,0l-0,52.295l7.658,-0l-0,-18.094l12.184,18.094l9.746,-0Zm32.805,-20.969c0,-8.438 -4.435,-15.399 -14.619,-15.399c-10.357,-0 -16.271,8.092 -16.271,18.794c-0,12.53 6.089,18.274 17.232,18.274c4.346,0 8.786,-0.781 12.351,-2.264l-0.781,-6.09c-2.871,1.39 -6.704,2.261 -10.354,2.261c-7.137,0 -10.791,-3.739 -10.533,-11.919l22.714,0c0.174,-1.394 0.261,-2.608 0.261,-3.657m-7.743,-1.741l-15.056,0c0.61,-4.785 3.654,-8 7.918,-8c4.527,-0 7.312,3.127 7.138,8m34.373,22.539l0,-6.266c-1.306,0.351 -3.05,0.523 -4.615,0.523c-3.653,-0 -4.699,-1.393 -4.699,-6.699l-0,-17.053l9.314,0l0,-5.921l-9.401,0l0,-13.4l-7.57,2l0,11.4l-6.787,0l-0,5.921l6.787,0l0,19.402c0,8.003 2.26,10.876 9.918,10.876c2.351,0 4.962,-0.346 7.053,-0.783m38.632,-18.358c0,-12.531 -6.701,-17.839 -16.271,-17.839c-10.792,-0 -17.753,8.262 -17.753,19.056c-0,12.531 6.437,18.012 16.359,18.012c10.531,0 17.665,-8.176 17.665,-19.229m-7.832,0.52c0,8.269 -4.173,12.095 -9.139,12.095c-5.915,-0 -9.047,-4.177 -9.047,-12.18c-0,-8.181 4.44,-11.749 9.139,-11.749c6.088,0 9.047,4.262 9.047,11.834m37.07,7.222c-0,-11.834 -15.748,-8.354 -15.748,-15.227c0,-2.697 2.089,-4.438 6.264,-4.438c2.352,0 4.786,0.346 6.962,0.959l0.258,-6.179c-2.172,-0.35 -4.609,-0.696 -6.7,-0.696c-9.659,-0 -14.706,4.869 -14.706,11.052c0,12.354 15.668,8.004 15.668,15.225c-0,2.961 -2.875,4.698 -7.051,4.698c-2.7,0 -5.572,-0.521 -7.743,-1.128l-0.262,6.521c2.263,0.438 4.873,0.7 7.569,0.7c9.571,0 15.489,-4.873 15.489,-11.487" style="fill:#383838;fill-rule:nonzero;"/></g><g><path d="M220.101,26.946l0.464,0c0.542,0 0.801,0.206 0.876,0.644c0.129,0.517 0.209,0.879 0.338,1.032l1.028,0c-0.075,-0.153 -0.181,-0.385 -0.307,-1.032c-0.129,-0.567 -0.337,-0.902 -0.75,-1.029l0,-0.054c0.492,-0.155 0.876,-0.49 0.876,-1.007c0,-0.411 -0.178,-0.723 -0.436,-0.902c-0.282,-0.206 -0.643,-0.335 -1.444,-0.335c-0.696,-0 -1.237,0.08 -1.626,0.129l-0,4.23l0.981,0l-0,-1.676Zm0.024,-1.907c0.105,-0.029 0.286,-0.054 0.542,-0.054c0.62,0 0.903,0.259 0.903,0.644c-0,0.441 -0.44,0.62 -0.979,0.62l-0.466,0l-0,-1.21Zm0.645,-2.84c-2.424,0 -4.359,1.859 -4.359,4.234c-0,2.37 1.935,4.255 4.359,4.255c2.425,0 4.334,-1.885 4.334,-4.255c0,-2.375 -1.909,-4.234 -4.307,-4.234l-0.027,0Zm0,0.853c1.856,0 3.249,1.523 3.249,3.404c0,1.857 -1.393,3.379 -3.222,3.354c-1.884,-0 -3.304,-1.497 -3.304,-3.377c0,-1.858 1.42,-3.381 3.253,-3.381l0.024,0Z" style="fill:#383838;fill-rule:nonzero;"/></g><g><path d="M17.043,37.869c-6.839,-4.962 -12.167,-10.803 -9.608,-18.707c4.834,-13.74 18.574,-18.057 33.354,-19.142c3.028,-0.217 4.745,1.159 4.963,4.183c1.011,14.142 2.206,26.253 -8.025,35.829c-8.521,7.869 -20.353,8.874 -30.288,3.485c-10.419,-5.907 -9.125,-21.601 -0.874,-31.156c1.23,-1.458 3.333,0.467 2.104,1.927c-5.794,6.638 -4.488,17.608 2.883,21.755c1.81,0.91 3.658,1.588 5.491,1.826m5.089,0.067c3.372,-0.535 6.58,-2.015 9.361,-4.585c6.927,-6.525 6.244,-14.594 5.466,-23.733l-0.03,-0.104c-9.388,1.068 -17.999,3.673 -21.166,12.529c-1.983,6.081 1.512,11.683 6.369,15.893" style="fill:#c4122f;fill-rule:nonzero;"/></g></g></g></svg>