<svg version="1" xmlns="http://www.w3.org/2000/svg" width="682.667" height="682.667" viewBox="0 0 512.000000 512.000000"><path d="M183.9 104.4c-12.7 4.5-23 17.5-25.6 32.1-.2 1.6-.8 4.8-1.2 7.1-1 5.4-.4 16 1.3 24.4 5.1 24.4 21.5 45.4 39.5 50.7 13.2 3.8 23.8 1.1 33.6-8.6 19.5-19.3 18.4-61.3-2.3-87.1-4.1-5-12.2-13-13.3-13-.4 0-1.4-.6-2.2-1.4-4.5-4.5-22.1-7-29.8-4.2zM307.9 104.4c-18.8 5-36.7 29.4-40.6 55.1-2.2 14.4.3 31.2 6.1 41.6 12.8 22.9 39.7 25.7 59.1 6.2 20.4-20.4 28.3-52.9 18.9-78.1-7.5-20.2-24.6-29.9-43.5-24.8zM113 200.8c-2.5.8-4.6 1.9-4.8 2.3-.2.5-.9.9-1.6.9-3 0-10.3 9.9-13.6 18.5-3.3 8.5-3.3 24.8-.1 35.4 10.3 34 37.6 55 62.2 47.7 8.4-2.4 15.7-10.3 19.4-20.6 5.1-14.2 3-33.5-5.5-50.5-6-11.9-14.5-21.6-24.5-28-9.8-6.3-22.7-8.6-31.5-5.7zM380.9 200.7c-9.5 2.3-16.7 6.8-25.2 15.7-17.9 18.5-25.6 47.6-18.2 68.6 6.3 18 21.8 25.8 40.4 20.4 7.8-2.2 13.5-5.8 20.7-13 9.8-9.8 16.1-20.2 19.9-32.7 2.3-7.3 2.9-11.9 2.9-21.7-.1-9-1.1-13.3-5.1-21.5-6.7-13.7-20.1-19.6-35.4-15.8zM244.9 263.5c-3.6.7-9.7 2.6-13.5 4.1-6.4 2.5-19.2 9.1-20.4 10.3-.3.3-3.2 2.4-6.4 4.6-26.8 18-50.3 48.5-60.2 78-2 6.3-2.6 10.1-2.7 17.5-.2 11.3 1.1 15.6 6.1 21 6.3 6.7 14.5 9.4 28.7 9.5 13 0 17.5-.9 44.1-9.5 24.4-7.9 34.6-9.2 48.9-6.2 2.2.5 12.1 3.6 22 7 24.4 8.3 28.7 9.2 42 8.8 11.5-.4 12.9-.6 20.4-3.1 19.5-6.5 22.3-31 7.1-61.5-4.2-8.4-12.3-21-18.3-28.5-11.7-14.6-35.6-34.9-50.2-42.7-16.8-8.9-33-12.1-47.6-9.3z"/></svg>