<svg version="1" xmlns="http://www.w3.org/2000/svg" width="366.667" height="366.667" viewBox="0 0 275.000000 275.000000"><path d="M18.7 39.2c2.8 3.1 5.8 9.2 7.9 16.3 1.6 5.5 1.8 12.5 2.1 79.3.4 82.2.8 77.1-7 93.2-2.2 4.7-4.3 8.8-4.5 9.2-.2.5 16.5.8 37.2.8 20.7 0 37.6-.2 37.6-.5s-2.4-3.5-5.4-7.1c-3-3.7-7.2-9.9-9.3-13.8l-3.8-7.1-.6-42.5-.7-42.5-5.1-19.5c-4.1-15.8-5.7-20.4-8.6-24.5-4-5.8-4.3-8.3-1.6-11.6 1.6-2 3.1-2.5 9.1-2.9l7.2-.5 2.2-7.6c2-6.8 4.7-12.4 9.2-18.7l1.6-2.2H16.7l2 2.2zM100.6 38.2c.4.7 1.7 2.6 2.9 4.3 6.2 8.5 8.5 21.9 8.6 50.4.1 11.9.4 22.6.8 23.9.4 1.7 2.2-4.2 6-19.5 3-12 6-23 6.7-24.4 2.8-5.6 10.8-5.8 13.3-.3.6 1.3 3.3 10.8 6.1 21.1 2.8 10.4 5.2 19.2 5.4 19.8.5 1.9 3.6-21.1 3.6-27.3 0-3.7-.6-7.5-1.6-9.3-1.7-3.3-1.2-6.1 1.6-8.7 1-.9 2.5-4.5 3.4-8 1.9-7.6 5.9-16.2 9.3-20.2l2.5-3h-34.7c-27.4 0-34.5.3-33.9 1.2zM183 37.8c0 .5.9 1.7 1.9 2.6 3.2 2.9 5.9 10.1 8.6 22.8.5 2.6.8 2.8 6.1 2.8 4.5 0 5.9.4 7.9 2.5 3.7 3.6 3.2 6.6-2.5 13.2-3.4 3.9-5.8 7.9-7.2 12.3-2.2 6.3-2.3 8.1-2.8 61.5l-.5 55-2.9 7.5c-1.5 4.1-4.1 9.8-5.7 12.6-1.6 2.8-2.9 5.7-2.9 6.3 0 .8 10.3 1.1 37.5 1.1H258l-6.3-7.9c-3.4-4.4-7.8-11.1-9.7-14.8l-3.4-6.8-.8-64.5c-.5-35.5-.6-67-.2-70 1.3-12.9 5.5-25.4 11-32.7 1.3-1.7 2.4-3.4 2.4-3.7 0-.3-15.3-.6-34-.6s-34 .4-34 .8z"/><path d="M64.8 76.7c1.6 2.1 3.4 5.1 4 6.8 1.5 3.8 18.1 71.1 22.7 91.6 3.9 17.4 3.8 18.4-1.6 23.7l-3.3 3.2h42.2l-1.3-3.8c-1.5-4.1-1.1-7.2 3.8-31.1l2.3-11.4 3.2 16.9c3.6 19 3.9 24 1.6 27.2l-1.5 2.2h42.4l-2-2.3c-5.3-5.8-5.3-6.8.3-40.8 5.7-35.1 12-65.2 15-72.4.7-1.7 3.4-5.5 5.9-8.3l4.7-5.2h-44.3l2.2 2.9c1.8 2.5 2.1 3.8 1.6 7.8-.8 6.4-9.6 64.6-10 65.5-.1.4-4.7-16-10.1-36.3-5.5-20.3-10.3-36.6-10.7-36.2-.3.5-4.3 15.9-8.9 34.3-4.5 18.4-8.6 35.3-9.2 37.5-1 3.8-1.3 3.1-5.9-18.5-2.7-12.4-6-28.6-7.4-35.9-2.5-13.4-2.5-13.5-.6-17.3l1.8-3.8H61.9l2.9 3.7zM121.4 209.7l-10.1.4-1.2 4.2c-.7 2.3-3.3 8.4-5.7 13.6-2.4 5.1-4.4 9.5-4.4 9.7 0 .2 16.9.4 37.6.4 36.5 0 37.6-.1 36.3-1.9-.8-1-3.6-4.5-6.2-7.7-2.6-3.3-6.2-8.7-7.9-12.2l-3.1-6.2H147c-5.4 0-11-.1-12.6-.3-1.6-.2-7.4-.2-13 0z"/></svg>